<svg width="51" height="51" viewBox="0 0 51 51" fill="none" xmlns="http://www.w3.org/2000/svg">
<path d="M43.0312 12.3516H36.2578L34.6441 7.8293C34.5327 7.51985 34.3284 7.25237 34.0591 7.06339C33.7899 6.87441 33.469 6.77315 33.14 6.77344H17.86C17.1876 6.77344 16.585 7.19678 16.3608 7.8293L14.7422 12.3516H7.96875C5.76738 12.3516 3.98438 14.1346 3.98438 16.3359V39.0469C3.98438 41.2482 5.76738 43.0312 7.96875 43.0312H43.0312C45.2326 43.0312 47.0156 41.2482 47.0156 39.0469V16.3359C47.0156 14.1346 45.2326 12.3516 43.0312 12.3516ZM43.4297 39.0469C43.4297 39.266 43.2504 39.4453 43.0312 39.4453H7.96875C7.74961 39.4453 7.57031 39.266 7.57031 39.0469V16.3359C7.57031 16.1168 7.74961 15.9375 7.96875 15.9375H17.2673L18.1189 13.5568L19.2595 10.3594H31.7355L32.8761 13.5568L33.7277 15.9375H43.0312C43.2504 15.9375 43.4297 16.1168 43.4297 16.3359V39.0469ZM25.5 19.125C21.0973 19.125 17.5312 22.691 17.5312 27.0937C17.5312 31.4965 21.0973 35.0625 25.5 35.0625C29.9027 35.0625 33.4687 31.4965 33.4687 27.0937C33.4687 22.691 29.9027 19.125 25.5 19.125ZM25.5 31.875C22.8604 31.875 20.7187 29.7334 20.7187 27.0937C20.7187 24.4541 22.8604 22.3125 25.5 22.3125C28.1396 22.3125 30.2812 24.4541 30.2812 27.0937C30.2812 29.7334 28.1396 31.875 25.5 31.875Z" fill="black"/>
</svg>
