<svg width="44" height="44" viewBox="0 0 44 44" fill="none" xmlns="http://www.w3.org/2000/svg">
<path d="M36.6667 7.33333H7.33335C5.31669 7.33333 3.66669 8.98333 3.66669 11V33C3.66669 35.0167 5.31669 36.6667 7.33335 36.6667H36.6667C38.6834 36.6667 40.3334 35.0167 40.3334 33V11C40.3334 8.98333 38.6834 7.33333 36.6667 7.33333ZM36.6667 33H7.33335V11H36.6667V33ZM7.33335 0H36.6667V3.66667H7.33335V0ZM7.33335 40.3333H36.6667V44H7.33335V40.3333ZM22 22C23.2156 22 24.3814 21.5171 25.2409 20.6576C26.1005 19.798 26.5834 18.6322 26.5834 17.4167C26.5834 16.2011 26.1005 15.0353 25.2409 14.1758C24.3814 13.3162 23.2156 12.8333 22 12.8333C20.7844 12.8333 19.6187 13.3162 18.7591 14.1758C17.8996 15.0353 17.4167 16.2011 17.4167 17.4167C17.4167 18.6322 17.8996 19.798 18.7591 20.6576C19.6187 21.5171 20.7844 22 22 22ZM22 15.5833C23.0084 15.5833 23.8334 16.4083 23.8334 17.4167C23.8334 18.425 23.0084 19.25 22 19.25C20.9917 19.25 20.1667 18.425 20.1667 17.4167C20.1667 16.4083 20.9917 15.5833 22 15.5833ZM31.1667 29.3333C31.1667 25.4833 25.0984 23.8333 22 23.8333C18.9017 23.8333 12.8334 25.4833 12.8334 29.3333V31.1667H31.1667V29.3333ZM16.1517 28.4167C17.27 27.5 19.8734 26.5833 22 26.5833C24.145 26.5833 26.7484 27.5 27.8667 28.4167H16.1517Z" fill="black"/>
</svg>
