<svg width="44" height="44" viewBox="0 0 44 44" fill="none" xmlns="http://www.w3.org/2000/svg">
<path d="M39.1111 7.33334H4.8889C4.2406 7.33334 3.61884 7.59088 3.16042 8.0493C2.702 8.50773 2.44446 9.12948 2.44446 9.77779V34.2222C2.44446 34.8705 2.702 35.4923 3.16042 35.9507C3.61884 36.4091 4.2406 36.6667 4.8889 36.6667H39.1111C39.7594 36.6667 40.3812 36.4091 40.8396 35.9507C41.298 35.4923 41.5556 34.8705 41.5556 34.2222V9.77779C41.5556 9.12948 41.298 8.50773 40.8396 8.0493C40.3812 7.59088 39.7594 7.33334 39.1111 7.33334V7.33334ZM37.2289 34.2222H6.91779L15.4733 25.3733L13.7133 23.6744L4.8889 32.8044V11.6356L20.0811 26.7544C20.5391 27.2097 21.1587 27.4653 21.8045 27.4653C22.4502 27.4653 23.0698 27.2097 23.5278 26.7544L39.1111 11.2567V32.6456L30.1156 23.65L28.3922 25.3733L37.2289 34.2222ZM6.49001 9.77779H37.1311L21.8045 25.0189L6.49001 9.77779Z" fill="black"/>
</svg>
