<svg width="24" height="24" viewBox="0 0 24 24" fill="none" xmlns="http://www.w3.org/2000/svg">
<path d="M17.33 14.5L19.83 10.76C19.9317 10.6095 19.9905 10.4341 20.0001 10.2527C20.0097 10.0713 19.9697 9.89067 19.8843 9.73029C19.799 9.5699 19.6716 9.4358 19.5158 9.34237C19.36 9.24894 19.1817 9.19972 19 9.19999H13.11L13.88 2.10999C13.8934 1.8956 13.8375 1.68259 13.7204 1.50248C13.6033 1.32238 13.4314 1.18476 13.23 1.10999C13.0205 1.0339 12.7916 1.02996 12.5797 1.0988C12.3677 1.16765 12.1848 1.30533 12.06 1.48999L8.94 6.10999L17.33 14.5ZM6.67 9.49999L4.17 13.24C4.06827 13.3905 4.00946 13.5659 3.99988 13.7473C3.99031 13.9287 4.03034 14.1093 4.11567 14.2697C4.201 14.4301 4.32841 14.5642 4.48422 14.6576C4.64002 14.751 4.81833 14.8003 5 14.8H10.89L10.12 21.89C10.0952 22.1125 10.1457 22.3369 10.2636 22.5273C10.3814 22.7177 10.5597 22.863 10.77 22.94C10.879 22.9796 10.994 22.9999 11.11 23C11.2738 23.0002 11.4352 22.9602 11.5799 22.8835C11.7246 22.8068 11.8483 22.6957 11.94 22.56L15.06 17.89L6.67 9.49999ZM20.71 19.29L4.71 3.28999C4.61676 3.19675 4.50607 3.12279 4.38425 3.07233C4.26243 3.02187 4.13186 2.9959 4 2.9959C3.86814 2.9959 3.73758 3.02187 3.61575 3.07233C3.49393 3.12279 3.38324 3.19675 3.29 3.28999C3.1017 3.4783 2.99591 3.73369 2.99591 3.99999C2.99591 4.26629 3.1017 4.52169 3.29 4.70999L19.29 20.71C19.383 20.8037 19.4936 20.8781 19.6154 20.9289C19.7373 20.9797 19.868 21.0058 20 21.0058C20.132 21.0058 20.2627 20.9797 20.3846 20.9289C20.5064 20.8781 20.617 20.8037 20.71 20.71C20.8037 20.617 20.8781 20.5064 20.9289 20.3846C20.9797 20.2627 21.0058 20.132 21.0058 20C21.0058 19.868 20.9797 19.7373 20.9289 19.6154C20.8781 19.4936 20.8037 19.383 20.71 19.29V19.29Z" fill="black"/>
</svg>
