<svg width="35" height="31" viewBox="0 0 35 31" fill="none" xmlns="http://www.w3.org/2000/svg">
<path fill-rule="evenodd" clip-rule="evenodd" d="M19.0351 18.0833H20.4502V19.375H19.0351V18.0833ZM20.4502 19.375H21.8653V20.6667H20.4502V19.375ZM20.4502 20.6667H21.8653V21.9583H20.4502V20.6667ZM23.2804 20.6667H24.6955V21.9583H23.2804V20.6667ZM23.2804 21.9583H24.6955V23.25H23.2804V21.9583ZM19.0351 20.6667H20.4502V21.9583H19.0351V20.6667ZM21.8653 20.6667H23.2804V21.9583H21.8653V20.6667ZM21.8653 21.9583H23.2804V23.25H21.8653V21.9583ZM26.1106 20.6667H27.5257V21.9583H26.1106V20.6667ZM26.1106 19.375H27.5257V20.6667H26.1106V19.375ZM27.5257 18.0833H28.9408V19.375H27.5257V18.0833ZM24.6955 20.6667H26.1106V21.9583H24.6955V20.6667ZM24.6955 21.9583H26.1106V23.25H24.6955V21.9583ZM23.2804 23.25H24.6955V24.5417H23.2804V23.25ZM21.8653 23.25H23.2804V24.5417H21.8653V23.25ZM24.6955 23.25H26.1106V24.5417H24.6955V23.25ZM26.1106 23.25H27.5257V24.5417H26.1106V23.25ZM23.2804 24.5417H24.6955V25.8333H23.2804V24.5417ZM20.4502 24.5417H21.8653V25.8333H20.4502V24.5417ZM21.8653 24.5417H23.2804V25.8333H21.8653V24.5417ZM19.0351 24.5417H20.4502V25.8333H19.0351V24.5417ZM19.0351 25.8333H20.4502V27.125H19.0351V25.8333ZM20.4502 27.125H21.8653V28.4167H20.4502V27.125ZM21.8653 27.125H23.2804V28.4167H21.8653V27.125ZM24.6955 27.125H26.1106V28.4167H24.6955V27.125ZM26.1106 27.125H27.5257V28.4167H26.1106V27.125ZM24.6955 24.5417H26.1106V25.8333H24.6955V24.5417ZM26.1106 24.5417H27.5257V25.8333H26.1106V24.5417ZM27.5257 23.25H28.9408V24.5417H27.5257V23.25ZM27.5257 21.9583H28.9408V23.25H27.5257V21.9583ZM27.5257 25.8333H28.9408V27.125H27.5257V25.8333ZM27.5257 24.5417H28.9408V25.8333H27.5257V24.5417ZM28.9408 23.25H30.3559V24.5417H28.9408V23.25ZM28.9408 21.9583H30.3559V23.25H28.9408V21.9583ZM30.3559 25.8333H31.771V27.125H30.3559V25.8333ZM30.3559 23.25H31.771V24.5417H30.3559V23.25ZM30.3559 24.5417H31.771V25.8333H30.3559V24.5417ZM27.5257 20.6667H28.9408V21.9583H27.5257V20.6667ZM19.0351 21.9583H20.4502V23.25H19.0351V21.9583ZM17.6201 21.9583H19.0351V23.25H17.6201V21.9583ZM17.6201 23.25H19.0351V24.5417H17.6201V23.25ZM20.4502 23.25H21.8653V24.5417H20.4502V23.25ZM16.205 23.25H17.6201V24.5417H16.205V23.25ZM19.0351 23.25H20.4502V24.5417H19.0351V23.25ZM16.205 24.5417H17.6201V25.8333H16.205V24.5417ZM16.205 25.8333H17.6201V27.125H16.205V25.8333ZM16.205 1.29166H17.6201V2.58332H16.205V1.29166ZM17.6201 2.58332H19.0351V3.87499H17.6201V2.58332ZM16.205 5.16666H17.6201V6.45832H16.205V5.16666ZM17.6201 6.45832H19.0351V7.74999H17.6201V6.45832ZM16.205 7.74999H17.6201V9.04166H16.205V7.74999ZM17.6201 7.74999H19.0351V9.04166H17.6201V7.74999ZM17.6201 9.04166H19.0351V10.3333H17.6201V9.04166ZM17.6201 10.3333H19.0351V11.625H17.6201V10.3333ZM16.205 11.625H17.6201V12.9167H16.205V11.625ZM17.6201 11.625H19.0351V12.9167H17.6201V11.625ZM16.205 12.9167H17.6201V14.2083H16.205V12.9167ZM2.05402 14.2083H3.46911V15.5H2.05402V14.2083ZM3.46911 15.5H4.8842V16.7917H3.46911V15.5ZM6.2993 14.2083H7.71439V15.5H6.2993V14.2083ZM6.2993 15.5H7.71439V16.7917H6.2993V15.5ZM7.71439 14.2083H9.12949V15.5H7.71439V14.2083ZM9.12949 15.5H10.5446V16.7917H9.12949V15.5ZM10.5446 14.2083H11.9597V15.5H10.5446V14.2083ZM11.9597 15.5H13.3748V16.7917H11.9597V15.5ZM11.9597 14.2083H13.3748V15.5H11.9597V14.2083ZM13.3748 14.2083H14.7899V15.5H13.3748V14.2083ZM14.7899 14.2083H16.205V15.5H14.7899V14.2083ZM16.205 15.5H17.6201V16.7917H16.205V15.5ZM19.0351 15.5H20.4502V16.7917H19.0351V15.5ZM20.4502 14.2083H21.8653V15.5H20.4502V14.2083ZM21.8653 14.2083H23.2804V15.5H21.8653V14.2083ZM23.2804 14.2083H24.6955V15.5H23.2804V14.2083ZM21.8653 16.7917H23.2804V18.0833H21.8653V16.7917ZM19.0351 28.4167H20.4502V29.7083H19.0351V28.4167ZM17.6201 28.4167H19.0351V29.7083H17.6201V28.4167ZM17.6201 16.7917H19.0351V18.0833H17.6201V16.7917ZM16.205 16.7917H17.6201V18.0833H16.205V16.7917ZM16.205 18.0833H17.6201V19.375H16.205V18.0833ZM16.205 19.375H17.6201V20.6667H16.205V19.375ZM31.771 18.0833H33.1861V19.375H31.771V18.0833ZM30.3559 19.375H31.771V20.6667H30.3559V19.375ZM31.771 21.9583H33.1861V23.25H31.771V21.9583ZM24.6955 16.7917H26.1106V18.0833H24.6955V16.7917ZM26.1106 15.5H27.5257V16.7917H26.1106V15.5ZM31.771 15.5H33.1861V16.7917H31.771V15.5ZM31.771 16.7917H33.1861V18.0833H31.771V16.7917ZM30.3559 16.7917H31.771V18.0833H30.3559V16.7917ZM31.771 27.125H33.1861V28.4167H31.771V27.125ZM30.3559 28.4167H31.771V29.7083H30.3559V28.4167ZM27.5257 28.4167H28.9408V29.7083H27.5257V28.4167ZM31.771 28.4167H33.1861V29.7083H31.771V28.4167Z" fill="white"/>
<path fill-rule="evenodd" clip-rule="evenodd" d="M21.8653 2.58331H31.771V11.625H21.8653V2.58331ZM3.46912 2.58331H13.3748V11.625H3.46912V2.58331ZM3.46912 19.375H13.3748V28.4166H3.46912V19.375ZM26.1106 6.45831H27.5257V7.74998H26.1106V6.45831ZM7.7144 6.45831H9.12949V7.74998H7.7144V6.45831ZM7.7144 23.25H9.12949V24.5416H7.7144V23.25Z" stroke="white" stroke-width="2"/>
</svg>
