<svg width="109" height="109" viewBox="0 0 109 109" fill="none" xmlns="http://www.w3.org/2000/svg">
<path d="M36.3333 95.375H18.1667C16.9621 95.375 15.8069 94.8965 14.9552 94.0448C14.1035 93.1931 13.625 92.0379 13.625 90.8333V72.6667C13.625 71.4622 13.1465 70.307 12.2948 69.4552C11.443 68.6035 10.2879 68.125 9.08333 68.125C7.87881 68.125 6.72362 68.6035 5.87189 69.4552C5.02016 70.307 4.54167 71.4622 4.54167 72.6667V90.8333C4.54167 94.4469 5.97715 97.9125 8.53234 100.468C11.0875 103.023 14.5531 104.458 18.1667 104.458H36.3333C37.5378 104.458 38.693 103.98 39.5448 103.128C40.3965 102.276 40.875 101.121 40.875 99.9167C40.875 98.7122 40.3965 97.557 39.5448 96.7052C38.693 95.8535 37.5378 95.375 36.3333 95.375V95.375ZM99.9166 68.125C98.7121 68.125 97.5569 68.6035 96.7052 69.4552C95.8534 70.307 95.375 71.4622 95.375 72.6667V90.8333C95.375 92.0379 94.8965 93.1931 94.0447 94.0448C93.193 94.8965 92.0378 95.375 90.8333 95.375H72.6666C71.4621 95.375 70.3069 95.8535 69.4552 96.7052C68.6035 97.557 68.125 98.7122 68.125 99.9167C68.125 101.121 68.6035 102.276 69.4552 103.128C70.3069 103.98 71.4621 104.458 72.6666 104.458H90.8333C94.4469 104.458 97.9124 103.023 100.468 100.468C103.023 97.9125 104.458 94.4469 104.458 90.8333V72.6667C104.458 71.4622 103.98 70.307 103.128 69.4552C102.276 68.6035 101.121 68.125 99.9166 68.125ZM90.8333 4.54167H72.6666C71.4621 4.54167 70.3069 5.02017 69.4552 5.87189C68.6035 6.72362 68.125 7.87881 68.125 9.08334C68.125 10.2879 68.6035 11.4431 69.4552 12.2948C70.3069 13.1465 71.4621 13.625 72.6666 13.625H90.8333C92.0378 13.625 93.193 14.1035 94.0447 14.9552C94.8965 15.807 95.375 16.9621 95.375 18.1667V36.3333C95.375 37.5379 95.8534 38.6931 96.7052 39.5448C97.5569 40.3965 98.7121 40.875 99.9166 40.875C101.121 40.875 102.276 40.3965 103.128 39.5448C103.98 38.6931 104.458 37.5379 104.458 36.3333V18.1667C104.458 14.5531 103.023 11.0875 100.468 8.53234C97.9124 5.97716 94.4469 4.54167 90.8333 4.54167V4.54167ZM9.08333 40.875C10.2879 40.875 11.443 40.3965 12.2948 39.5448C13.1465 38.6931 13.625 37.5379 13.625 36.3333V18.1667C13.625 16.9621 14.1035 15.807 14.9552 14.9552C15.8069 14.1035 16.9621 13.625 18.1667 13.625H36.3333C37.5378 13.625 38.693 13.1465 39.5448 12.2948C40.3965 11.4431 40.875 10.2879 40.875 9.08334C40.875 7.87881 40.3965 6.72362 39.5448 5.87189C38.693 5.02017 37.5378 4.54167 36.3333 4.54167H18.1667C14.5531 4.54167 11.0875 5.97716 8.53234 8.53234C5.97715 11.0875 4.54167 14.5531 4.54167 18.1667V36.3333C4.54167 37.5379 5.02016 38.6931 5.87189 39.5448C6.72362 40.3965 7.87881 40.875 9.08333 40.875ZM45.4166 22.7083H27.25C26.0455 22.7083 24.8903 23.1868 24.0385 24.0386C23.1868 24.8903 22.7083 26.0455 22.7083 27.25V45.4167C22.7083 46.6212 23.1868 47.7764 24.0385 48.6281C24.8903 49.4798 26.0455 49.9583 27.25 49.9583H45.4166C46.6212 49.9583 47.7764 49.4798 48.6281 48.6281C49.4798 47.7764 49.9583 46.6212 49.9583 45.4167V27.25C49.9583 26.0455 49.4798 24.8903 48.6281 24.0386C47.7764 23.1868 46.6212 22.7083 45.4166 22.7083ZM40.875 40.875H31.7917V31.7917H40.875V40.875ZM63.5833 49.9583H81.75C82.9545 49.9583 84.1097 49.4798 84.9614 48.6281C85.8131 47.7764 86.2916 46.6212 86.2916 45.4167V27.25C86.2916 26.0455 85.8131 24.8903 84.9614 24.0386C84.1097 23.1868 82.9545 22.7083 81.75 22.7083H63.5833C62.3788 22.7083 61.2236 23.1868 60.3719 24.0386C59.5201 24.8903 59.0416 26.0455 59.0416 27.25V45.4167C59.0416 46.6212 59.5201 47.7764 60.3719 48.6281C61.2236 49.4798 62.3788 49.9583 63.5833 49.9583ZM68.125 31.7917H77.2083V40.875H68.125V31.7917ZM45.4166 59.0417H27.25C26.0455 59.0417 24.8903 59.5202 24.0385 60.3719C23.1868 61.2236 22.7083 62.3788 22.7083 63.5833V81.75C22.7083 82.9545 23.1868 84.1097 24.0385 84.9615C24.8903 85.8132 26.0455 86.2917 27.25 86.2917H45.4166C46.6212 86.2917 47.7764 85.8132 48.6281 84.9615C49.4798 84.1097 49.9583 82.9545 49.9583 81.75V63.5833C49.9583 62.3788 49.4798 61.2236 48.6281 60.3719C47.7764 59.5202 46.6212 59.0417 45.4166 59.0417ZM40.875 77.2083H31.7917V68.125H40.875V77.2083ZM63.5833 72.6667C64.7878 72.6667 65.943 72.1882 66.7947 71.3365C67.6465 70.4847 68.125 69.3295 68.125 68.125C69.3295 68.125 70.4847 67.6465 71.3364 66.7948C72.1881 65.9431 72.6666 64.7879 72.6666 63.5833C72.6666 62.3788 72.1881 61.2236 71.3364 60.3719C70.4847 59.5202 69.3295 59.0417 68.125 59.0417H63.5833C62.3788 59.0417 61.2236 59.5202 60.3719 60.3719C59.5201 61.2236 59.0416 62.3788 59.0416 63.5833V68.125C59.0416 69.3295 59.5201 70.4847 60.3719 71.3365C61.2236 72.1882 62.3788 72.6667 63.5833 72.6667ZM81.75 59.0417C80.5454 59.0417 79.3902 59.5202 78.5385 60.3719C77.6868 61.2236 77.2083 62.3788 77.2083 63.5833V77.2083C76.0038 77.2083 74.8486 77.6868 73.9968 78.5386C73.1451 79.3903 72.6666 80.5455 72.6666 81.75C72.6666 82.9545 73.1451 84.1097 73.9968 84.9615C74.8486 85.8132 76.0038 86.2917 77.2083 86.2917H81.75C82.9545 86.2917 84.1097 85.8132 84.9614 84.9615C85.8131 84.1097 86.2916 82.9545 86.2916 81.75V63.5833C86.2916 62.3788 85.8131 61.2236 84.9614 60.3719C84.1097 59.5202 82.9545 59.0417 81.75 59.0417ZM63.5833 77.2083C62.685 77.2083 61.807 77.4747 61.0601 77.9737C60.3132 78.4728 59.7311 79.1821 59.3874 80.012C59.0436 80.8419 58.9537 81.7551 59.1289 82.636C59.3041 83.517 59.7367 84.3263 60.3719 84.9615C61.007 85.5966 61.8163 86.0292 62.6973 86.2044C63.5783 86.3797 64.4914 86.2897 65.3213 85.946C66.1512 85.6022 66.8605 85.0201 67.3596 84.2732C67.8586 83.5264 68.125 82.6483 68.125 81.75C68.125 80.5455 67.6465 79.3903 66.7947 78.5386C65.943 77.6868 64.7878 77.2083 63.5833 77.2083Z" fill="black"/>
</svg>
