<svg width="50" height="50" viewBox="0 0 50 50" fill="none" xmlns="http://www.w3.org/2000/svg">
<path d="M10.4167 4.16667C8.11875 4.16667 6.25 6.03542 6.25 8.33334V33.3333C6.25 35.6313 8.11875 37.5 10.4167 37.5H17.8875L25 44.6125L32.1125 37.5H39.5833C41.8812 37.5 43.75 35.6313 43.75 33.3333V8.33334C43.75 6.03542 41.8812 4.16667 39.5833 4.16667H10.4167ZM39.5833 33.3333H30.3875L25 38.7208L19.6125 33.3333H10.4167V8.33334H39.5833V33.3333Z" fill="black"/>
<path d="M14.5833 14.5833H35.4167V18.75H14.5833V14.5833ZM14.5833 22.9167H29.1667V27.0833H14.5833V22.9167Z" fill="black"/>
</svg>
