<svg width="35" height="35" viewBox="0 0 35 35" fill="none" xmlns="http://www.w3.org/2000/svg">
<path d="M15.3912 9.1L10.4577 3.40521C9.88895 2.74896 8.84625 2.75188 8.18562 3.41396L4.12854 7.47833C2.92103 8.68729 2.57541 10.4825 3.27395 11.9219C7.44715 20.5625 14.4157 27.5408 23.0504 31.726C24.4883 32.4246 26.2821 32.079 27.4896 30.87L31.5846 26.7677C32.2481 26.1042 32.2496 25.0556 31.5875 24.4869L25.8708 19.5796C25.2729 19.0662 24.344 19.1333 23.7446 19.7342L21.7554 21.7263C21.6536 21.833 21.5195 21.9033 21.3738 21.9265C21.2282 21.9497 21.0789 21.9244 20.949 21.8546C17.6975 19.9822 15.0004 17.2816 13.1323 14.0277C13.0623 13.8976 13.037 13.748 13.0602 13.6021C13.0834 13.4562 13.1538 13.3219 13.2606 13.2198L15.244 11.235C15.8448 10.6313 15.9104 9.69792 15.3912 9.09854V9.1Z" stroke="black" stroke-width="2" stroke-linecap="round" stroke-linejoin="round"/>
</svg>
