<svg width="45" height="45" viewBox="0 0 45 45" fill="none" xmlns="http://www.w3.org/2000/svg">
<g clip-path="url(#clip0)">
<path d="M0 21.7643V21.7007C0.564854 14.3174 3.20084 8.77992 7.78243 5.27921C12.3013 1.71486 17.1967 -0.00366308 22.5314 -0.00366308C28.1172 -0.0673122 33.3264 1.84216 37.9707 5.66111C42.6778 9.41641 45 15.0175 45 22.2735V22.7191C45 30.0387 42.6778 35.5125 37.9707 39.2678C33.2636 43.0868 28.0544 44.9963 22.4686 44.9963H22.2176C16.7573 44.9326 11.7364 43.0231 7.09205 39.2042C2.4477 35.4489 0.0627615 29.6568 0 21.7643ZM21.1506 11.7714V1.71486H19.6444C19.3305 2.09676 19.0795 2.5423 18.8285 2.9242C18.5774 3.30609 18.3264 3.68799 18.0753 4.13353C17.8243 4.51542 17.5105 5.02462 17.3222 5.40651C17.0711 5.78841 16.8828 6.1703 16.6946 6.61585C16.318 7.25234 16.0042 7.88883 15.7531 8.46167C15.4393 9.03451 15.1883 9.60736 15 10.1165C15.3766 10.3711 15.8159 10.6894 16.318 10.8803C16.8828 11.0713 17.4477 11.2622 18.0126 11.3895C18.6402 11.5168 19.205 11.5805 19.7071 11.6441C20.272 11.7078 20.7741 11.7714 21.1506 11.7714ZM23.7866 1.71486V11.7078C24.1004 11.7078 24.477 11.7714 24.8536 11.7078C25.2301 11.7078 25.6695 11.6441 26.046 11.5805C26.7364 11.4532 27.5523 11.2622 28.1799 11.0713C28.8703 10.8167 29.4979 10.4984 29.9372 10.1165C29.1841 8.27072 28.3682 6.80679 27.5523 5.40651C26.7364 4.00623 25.795 2.7969 24.7908 1.77851V1.71486H23.7866ZM17.0084 2.28771V2.22406C16.569 2.415 16.1297 2.73325 15.6276 2.9242C15.1883 3.11514 14.6234 3.36974 14.1841 3.62434C13.3054 4.06988 12.4268 4.57907 11.5481 5.15192C10.7322 5.72476 9.91632 6.36125 9.22594 6.99774C9.47699 7.25234 9.7908 7.50693 10.0418 7.69788C10.2929 7.88883 10.6067 8.14343 10.9205 8.39802C11.1715 8.52532 11.4854 8.71627 11.7992 8.97086C12.113 9.16181 12.4895 9.41641 12.8661 9.671C13.3682 8.52532 13.8703 7.31599 14.4979 6.23395C15.1255 5.08827 15.8159 4.00623 16.5063 3.05149C16.569 2.9242 16.6318 2.7969 16.7573 2.6696C16.8201 2.60595 16.8828 2.415 17.0084 2.28771ZM36.2134 6.99774V6.93409C34.6444 5.72476 33.2636 4.70637 31.8828 4.06988C30.5021 3.43339 29.1213 2.7969 27.8661 2.28771C28.8703 3.30609 29.749 4.57907 30.3138 5.78841C30.9414 7.06139 31.569 8.39802 32.0711 9.671C32.3222 9.54371 32.636 9.41641 33.0126 9.16181C33.3264 8.97086 33.7657 8.77992 34.1423 8.58897C34.5188 8.33437 34.8326 8.07978 35.2092 7.82518C35.5858 7.50693 35.9623 7.25234 36.2134 6.99774ZM35.1464 21.1915H42.364C42.364 18.8365 41.8619 16.6088 40.9205 14.3174C40.0418 12.0897 38.7866 10.2438 37.2176 8.65262V8.58897C36.9038 9.09816 36.4644 9.54371 36.0251 9.86195C35.523 10.1802 35.0837 10.4348 34.5816 10.6894C34.2678 10.8803 33.954 11.1349 33.6402 11.2622C33.3264 11.4532 32.887 11.5805 32.5732 11.7714C32.8243 12.2806 33.0753 12.8535 33.3264 13.3627C33.5146 13.9355 33.8285 14.572 33.954 15.1448C34.3305 16.1632 34.5816 17.2453 34.8326 18.3273C35.0209 19.282 35.1464 20.3004 35.1464 21.1915ZM12.4268 11.7714V11.7078C11.9247 11.4532 11.3598 11.2622 10.9205 11.0076C10.4812 10.6894 10.0418 10.3711 9.66527 10.1165C9.2887 9.9256 8.91213 9.671 8.59833 9.41641C8.28452 9.16181 8.03347 8.90721 7.78243 8.65262C6.15063 10.2438 4.95816 12.026 4.20502 14.1264C3.38912 16.2269 2.82427 18.5819 2.57322 21.1278H10.2929C10.2929 19.3457 10.5439 17.6271 10.9833 15.9086C11.3598 14.1264 11.9247 12.7898 12.4268 11.7714ZM21.1506 21.1278V13.8082C20.6485 13.8718 20.0209 13.8718 19.4561 13.8082C18.8285 13.7445 18.2008 13.5536 17.636 13.3627C17.1339 13.2354 16.5063 13.1081 16.0042 12.9171C15.4393 12.7898 14.8745 12.5352 14.4351 12.2806C14.0586 12.9171 13.7448 13.6809 13.4937 14.5083C13.1799 15.2721 12.9916 16.0996 12.8033 16.8634C12.6778 17.6271 12.6151 18.4546 12.5523 19.1547C12.4895 19.8549 12.4268 20.555 12.4268 21.1278H21.1506ZM23.7866 13.9355V21.1278H33.0753C33.0753 20.746 33.0753 20.3004 33.0126 19.7912C32.887 19.3457 32.8243 18.7728 32.7615 18.2636C32.5732 17.4998 32.3849 16.6724 32.1339 15.9086C31.8828 15.2085 31.6318 14.5083 31.318 13.9355C31.1925 13.6172 31.0669 13.2354 30.9414 12.9808C30.7531 12.6625 30.5649 12.4716 30.4393 12.2806C29.749 12.7898 28.8075 13.1081 27.6778 13.3627C26.6109 13.6172 25.3556 13.8718 24.2259 13.9355H23.7866ZM10.2929 23.2283H2.57322C2.57322 24.3103 2.76151 25.5196 3.07531 26.9836C3.38912 28.5111 4.01674 29.9114 4.70711 31.439C5.02092 32.2028 5.39749 32.9666 5.77406 33.7304C6.21339 34.4305 6.71548 35.1943 7.21757 35.8944C7.59414 35.6398 7.97071 35.4489 8.28452 35.258C8.66109 35.067 9.10042 34.8124 9.47699 34.6215C9.91632 34.4305 10.3556 34.2396 10.8577 33.985C11.2971 33.794 11.8619 33.5394 12.4268 33.2848C11.9247 31.6936 11.3598 30.166 10.9833 28.4475C10.5439 26.7926 10.2929 25.1377 10.2929 23.2919V23.2283ZM21.1506 30.6752V23.2283H12.4268C12.4268 23.7375 12.4895 24.5013 12.6151 25.265C12.6778 26.0288 12.8661 26.8563 12.9916 27.6837C13.2427 28.5748 13.431 29.4659 13.682 30.2297C13.9331 30.9935 14.1841 31.63 14.4351 32.2028C15.5649 31.7573 16.6946 31.439 17.4477 31.2481C18.2636 30.9935 19.0167 30.8025 19.7699 30.7389H20.4603C20.7113 30.6752 20.9623 30.6752 21.1506 30.6752ZM23.7866 23.2283V30.6116C24.2259 30.6752 24.728 30.7389 25.2301 30.8025C25.795 30.8662 26.4854 30.9935 27.0502 31.1208L27.9916 31.3117C28.3054 31.439 28.682 31.5027 28.9958 31.5663C29.3724 31.6936 29.749 31.7573 30.1255 31.8845C30.4393 32.0118 30.7531 32.0755 31.0042 32.2028C31.8201 30.1024 32.3222 28.3838 32.636 26.9199C32.9498 25.5196 33.0753 24.3103 33.0753 23.2919V23.2283H23.7866ZM42.364 23.2919V23.2283H35.1464V23.6102C35.0837 24.8195 34.8954 26.2198 34.6444 27.6837C34.3933 29.084 33.8285 30.7389 33.0753 32.7756C34.0795 33.2848 35.0209 33.794 35.7741 34.3032C36.5272 34.8124 37.2176 35.3852 37.7197 35.8944C38.7866 34.8124 39.728 33.3485 40.5439 31.439C41.3598 29.5932 41.9247 27.6837 42.2385 25.6469C42.3013 25.265 42.3013 24.8831 42.364 24.5013V23.2919ZM21.1506 42.6412V32.712C19.5816 32.9666 18.2636 33.2848 17.2594 33.5394C16.2552 33.794 15.5021 34.0486 15 34.3032C15.3766 35.258 15.7531 36.0854 16.1297 36.8492C16.5063 37.5493 16.9456 38.3131 17.3222 38.9496C17.4477 39.2042 17.6987 39.4588 17.887 39.777C18.0753 40.0316 18.2008 40.3499 18.3891 40.6045C18.5774 40.9227 18.7657 41.3046 18.954 41.6865C19.205 42.0048 19.3933 42.3867 19.6444 42.6412H21.1506ZM23.7866 42.6412H25.2301C25.795 42.1957 26.3598 41.5592 26.7992 40.8591C27.3013 40.1589 27.8661 39.3315 28.2427 38.6314C28.682 37.8039 29.1213 37.0401 29.4979 36.2763C29.8745 35.5125 30.1883 34.8124 30.4393 34.3032C29.749 34.0486 28.8075 33.794 27.8661 33.5394C26.9247 33.2848 25.6067 33.0302 23.7866 32.7756V42.6412ZM36.2134 37.422V37.3584C36.0879 37.1674 35.8368 36.9128 35.6485 36.7219C35.4603 36.5309 35.1464 36.2763 34.8326 36.0854C34.5816 35.8944 34.2678 35.7035 33.8912 35.5125C33.5146 35.3216 33.0126 35.067 32.5732 34.8124C32.3222 35.3216 31.8828 36.2127 31.2552 37.422C30.6904 38.6314 29.6862 40.0953 28.431 41.6865C30 41.4319 31.3808 40.8591 32.636 40.0953C34.0167 39.3951 35.2092 38.4404 36.2134 37.422ZM12.8661 35.3852V35.3216C12.4268 35.5762 11.7364 35.8944 11.046 36.2127C10.2929 36.5309 9.47699 36.9128 8.72385 37.422C9.16318 37.8039 9.60251 38.1858 9.97908 38.4404C10.3556 38.7587 10.795 39.0132 11.1715 39.2678C11.8619 39.7134 12.6778 40.1589 13.4937 40.5408C14.3096 40.9227 15.3138 41.3046 16.569 41.6865C16.1297 41.1773 15.8159 40.5408 15.5021 40.0316C15.1883 39.5224 14.8117 39.0132 14.4979 38.5041C14.1841 37.9949 13.9331 37.422 13.682 36.9128C13.3682 36.4036 13.1172 35.8944 12.8661 35.3852Z" fill="black"/>
</g>
<defs>
<clipPath id="clip0">
<rect width="45" height="45" fill="white"/>
</clipPath>
</defs>
</svg>
